<svg version="1.1" id="Layer_1" xmlns="http://www.w3.org/2000/svg" xmlns:xlink="http://www.w3.org/1999/xlink" x="0px" y="0px"
	 width="100%" viewBox="0 0 576 384" enable-background="new 0 0 576 384" xml:space="preserve">
<path fill="#000000" opacity="1.000000" stroke="none" 
	d="
M506.000000,385.000000 
	C379.312439,385.000000 252.624878,385.000000 125.546860,384.806274 
	C122.577461,381.165100 118.949829,378.412750 115.116562,377.614075 
	C106.225067,375.761566 98.956436,371.003571 91.209572,366.837463 
	C85.619080,363.830963 81.853127,358.885895 76.723015,355.510315 
	C75.422791,354.654785 74.889725,352.987457 75.084068,351.484955 
	C76.402840,341.289520 70.036079,335.398285 62.971287,330.073914 
	C57.918022,326.265503 54.646973,321.418579 53.337227,315.365875 
	C51.787861,308.205872 50.612091,300.964569 49.303555,293.753204 
	C48.970177,291.915955 49.172825,290.090302 49.788910,288.330566 
	C53.792881,276.894043 51.574249,265.689270 48.321381,254.602707 
	C47.396255,251.449661 46.463718,248.334335 47.978653,245.383514 
	C52.617954,236.347000 52.503139,226.627625 51.916992,217.004608 
	C51.446587,209.281738 50.141670,201.684296 44.630730,195.287674 
	C41.440014,191.584183 38.924686,186.857864 40.736576,181.435593 
	C42.621071,175.796036 43.833172,169.805695 49.211811,165.980515 
	C51.143135,164.606995 51.748825,162.127838 52.449131,159.887711 
	C54.434898,153.535675 54.463665,146.200089 51.247631,141.381851 
	C45.540035,132.830780 49.639236,125.882713 52.037613,118.498894 
	C54.499832,110.918495 56.921864,102.725693 62.196293,97.000778 
	C67.780640,90.939484 69.531219,84.621300 69.358841,77.106667 
	C69.268898,73.185944 69.455673,69.246765 71.801682,66.072464 
	C81.064323,53.539509 91.727432,43.663952 108.759499,42.669453 
	C127.131905,41.596691 144.902344,36.817764 162.262695,30.713917 
	C166.241516,29.314980 169.815613,27.105934 172.767746,24.107531 
	C176.852585,19.958677 179.026810,15.101440 177.311081,9.128070 
	C176.533463,6.420796 175.769928,3.709481 175.000000,1.000000 
	C245.354233,1.000000 315.708466,1.000000 386.489014,1.304355 
	C387.773010,5.659037 388.725159,9.692325 389.459564,13.764880 
	C390.091461,17.269079 391.917603,19.780344 394.776581,21.855225 
	C401.406250,26.666658 408.309784,30.894974 415.907837,34.081329 
	C426.517426,38.530586 437.281036,42.425442 448.273743,45.865353 
	C467.361206,51.838287 484.084412,60.874466 492.477203,80.890862 
	C499.878418,98.542366 508.154877,115.831429 516.250488,133.184601 
	C518.820374,138.693253 522.894958,142.753082 529.522888,143.133636 
	C532.023254,143.277176 534.293457,144.159790 535.066528,146.667496 
	C536.729919,152.063171 539.083252,157.200516 540.176208,162.826233 
	C544.178650,183.426636 539.631470,203.592270 537.465576,223.882004 
	C537.123413,227.087708 535.587524,229.400803 532.231995,230.463150 
	C529.787231,231.237122 527.999329,233.158997 526.858521,235.448380 
	C525.786743,237.599396 525.229797,240.180405 526.779602,242.108002 
	C528.529907,244.284943 530.809937,242.776321 532.622070,241.684433 
	C536.067810,239.608276 538.040039,241.129425 539.096741,244.311279 
	C539.876831,246.660294 540.400635,249.158493 540.599365,251.625580 
	C541.538513,263.283875 541.213440,274.928864 539.729980,286.530487 
	C537.993835,300.107513 535.942261,313.761749 530.122864,326.181366 
	C526.410095,334.104919 522.585510,341.638336 522.289673,350.586548 
	C522.094788,356.478943 518.636353,360.013763 512.968567,361.460907 
	C511.014404,361.959839 508.808838,362.491028 508.099792,364.565735 
	C505.836151,371.189575 504.822784,377.996460 506.000000,385.000000 
M376.024292,217.503647 
	C379.959595,211.942932 382.009308,205.781860 382.830109,198.986908 
	C384.119568,188.312668 383.522308,177.666626 382.857269,167.042648 
	C381.624878,147.355209 370.826752,135.736206 351.392883,131.989563 
	C347.200928,131.181412 342.792480,132.302643 338.587524,130.482819 
	C338.447479,126.814209 341.502594,124.041565 340.519562,120.278076 
	C333.731964,131.100296 327.309662,142.094513 321.190979,153.255203 
	C319.302094,156.700562 321.898193,157.561600 324.811462,157.717194 
	C330.453674,158.018539 336.134003,157.159470 341.748566,158.456711 
	C348.640961,160.049194 352.024475,163.422791 352.290649,170.409546 
	C352.607544,178.728638 352.571838,187.078537 352.257782,195.398819 
	C352.006378,202.057999 348.393860,206.302200 342.077606,207.149994 
	C332.309265,208.461121 322.453949,207.991287 312.627533,207.563782 
	C309.682892,207.435684 308.600067,205.764801 308.633881,202.969727 
	C308.688385,198.470673 308.750397,193.964951 308.567261,189.471924 
	C308.422821,185.927338 309.420258,182.231598 307.658630,178.739944 
	C305.355591,179.327179 304.780975,181.225250 303.895538,182.735443 
	C298.840424,191.357605 294.236542,200.271576 288.753326,208.608932 
	C281.153748,220.164337 276.382324,232.062088 277.461639,246.397583 
	C278.409393,258.985657 277.461151,271.711334 277.492523,284.375885 
	C277.506866,290.159332 279.162415,291.635712 285.072998,291.681000 
	C290.572601,291.723175 296.073395,291.726318 301.572693,291.662872 
	C307.241791,291.597473 308.580048,290.269409 308.604340,284.505432 
	C308.657074,272.005646 308.425354,259.501556 308.675140,247.006531 
	C308.988556,231.328217 304.719330,231.943359 324.556366,231.972275 
	C328.019806,231.977310 329.948090,233.355392 331.390198,236.532578 
	C338.823761,252.909760 346.550812,269.153809 353.972290,285.536346 
	C355.960510,289.925293 358.865601,291.906067 363.660614,291.736786 
	C369.320160,291.536957 374.992340,291.712280 380.658875,291.687988 
	C388.957489,291.652435 389.772461,290.457855 386.279449,283.125580 
	C378.757294,267.335571 371.298401,251.512878 363.527740,235.845367 
	C361.320953,231.395966 360.640503,228.398438 366.185211,226.105057 
	C370.028290,224.515503 373.135468,221.551605 376.024292,217.503647 
M292.226746,146.601242 
	C299.935791,146.530746 300.847626,145.633240 300.867615,137.964783 
	C300.872803,135.967667 300.800476,133.968903 300.711853,131.973206 
	C299.886200,113.383957 288.009613,100.151810 269.494965,97.341476 
	C256.248932,95.330864 242.853516,95.796692 229.631042,96.683708 
	C208.650253,98.091156 197.144073,109.528046 193.850784,130.337112 
	C192.751648,137.282288 192.810699,144.376709 193.540024,151.264023 
	C195.302078,167.903763 201.553757,181.655655 221.588852,186.896667 
	C231.761215,189.557663 242.000946,191.627686 252.455429,192.609680 
	C267.089050,193.984207 272.540466,199.888245 272.443970,214.299484 
	C272.430695,216.282364 271.711609,218.447983 273.603943,221.152649 
	C281.062195,208.158524 288.193634,195.803574 295.235474,183.397766 
	C296.437408,181.280304 295.020630,179.547836 293.708832,178.013626 
	C289.937653,173.603104 285.172089,170.665878 279.753296,168.686554 
	C268.262024,164.489105 256.313232,162.609894 244.210083,161.283554 
	C226.800522,159.375732 222.465240,153.647049 224.497223,138.779419 
	C224.676971,137.464294 224.563065,136.109665 224.733368,134.792496 
	C225.509262,128.791061 228.529617,124.870033 233.982254,123.777664 
	C242.872040,121.996719 251.868118,121.994644 260.764160,123.767220 
	C265.354675,124.681915 268.406433,127.543205 269.397095,132.375702 
	C269.934082,134.995102 270.434387,137.588577 270.348328,140.275833 
	C270.206512,144.703125 272.515900,146.634125 276.799835,146.603256 
	C281.628662,146.568481 286.458008,146.599060 292.226746,146.601242 
M207.155426,248.355743 
	C219.026871,258.325653 233.604202,256.532166 248.709259,256.829102 
	C246.115189,263.526581 243.936798,269.150848 241.758408,274.775085 
	C241.987152,274.884033 242.215897,274.992950 242.444641,275.101868 
	C251.289261,259.735870 260.133881,244.369873 268.978516,229.003876 
	C268.572601,228.680573 268.166687,228.357269 267.760773,228.033951 
	C257.177704,231.360947 246.393600,230.983047 235.681366,229.551819 
	C228.500015,228.592331 225.338150,224.615738 224.701004,217.437881 
	C224.568710,215.947357 224.606857,214.441544 224.570007,212.942703 
	C224.466980,208.752533 222.504608,206.384674 218.135635,206.383118 
	C211.971268,206.380936 205.806854,206.398087 199.642548,206.379303 
	C195.712921,206.367340 193.632645,208.617920 193.531387,212.214874 
	C193.148865,225.803360 195.605545,238.444168 207.155426,248.355743 
z"/>
</svg>