<svg version="1.1" id="Layer_1" xmlns="http://www.w3.org/2000/svg" xmlns:xlink="http://www.w3.org/1999/xlink" x="0px" y="0px"
	 width="100%" viewBox="0 0 177 174" enable-background="new 0 0 177 174" xml:space="preserve">
<path fill="#010001" opacity="1.000000" stroke="none" 
	d="
M124.000000,175.000000 
	C82.666672,175.000000 41.833340,175.000000 1.000005,175.000000 
	C1.000004,117.000008 1.000004,59.000011 1.000002,1.000013 
	C59.999989,1.000009 118.999977,1.000009 177.999969,1.000004 
	C177.999985,58.999985 177.999985,116.999969 178.000000,174.999969 
	C160.166672,175.000000 142.333328,175.000000 124.000000,175.000000 
M93.373116,49.585094 
	C93.257568,50.064873 93.041489,50.544529 93.040924,51.024437 
	C93.016014,72.287781 92.995399,93.551178 93.046837,114.814392 
	C93.049316,115.839020 93.706436,116.862053 94.541588,117.977997 
	C94.541588,117.977997 95.012985,117.838486 95.930336,117.994064 
	C99.860626,117.994064 103.790924,117.994064 108.140869,117.994064 
	C108.140869,107.942764 108.140869,98.530243 108.140869,89.296158 
	C115.859573,87.941963 121.060257,90.689514 124.870392,97.009270 
	C128.646225,103.272118 132.891479,109.254395 137.010071,115.305809 
	C137.708405,116.331863 138.770050,117.797775 139.725708,117.846481 
	C144.731812,118.101578 149.757858,117.965683 155.596283,117.965683 
	C147.858582,106.994987 143.544968,94.897415 132.686707,87.345169 
	C134.820648,86.704308 136.600967,86.283318 138.297363,85.640770 
	C146.231598,82.635536 150.749100,74.924088 149.806473,66.114632 
	C148.843323,57.113430 143.671738,50.683838 134.897369,50.077789 
	C121.644669,49.162422 108.311722,49.408840 94.541626,49.021996 
	C94.541626,49.021996 94.058823,49.114063 93.373116,49.585094 
M50.900959,73.871292 
	C49.965900,73.535355 49.005493,73.256310 48.100452,72.853012 
	C45.178642,71.551033 41.402142,70.052925 42.600155,66.370071 
	C43.368786,64.007195 46.504322,61.607933 49.077469,60.786091 
	C57.575886,58.071789 62.944084,61.063370 67.036140,70.132919 
	C71.327599,69.708946 75.726273,69.274384 80.104660,68.841820 
	C79.442169,58.183044 73.651131,50.696491 63.794678,49.184196 
	C57.520233,48.221493 50.859966,48.254494 44.601284,49.261578 
	C40.669632,49.894218 36.411911,52.440273 33.603310,55.374821 
	C25.130075,64.228012 28.031229,78.581612 39.486973,83.713737 
	C46.511841,86.860840 54.233082,88.456627 61.647579,90.729568 
	C65.194534,91.816902 68.170616,93.423447 68.180710,97.759781 
	C68.190796,102.091133 65.448257,104.520081 61.848671,105.824631 
	C54.434193,108.511742 43.280838,107.656502 40.388054,96.065506 
	C40.206791,95.339203 39.830032,94.661690 39.485790,93.818329 
	C34.915226,94.303734 30.678364,94.753700 26.423071,95.205627 
	C28.689756,109.720657 35.122055,116.920036 48.614422,118.587967 
	C54.576412,119.325005 60.976639,118.758904 66.857460,117.398796 
	C76.281563,115.219200 81.804672,107.811569 82.164841,98.831497 
	C82.562042,88.928139 78.219643,82.304764 68.370209,78.759766 
	C62.943020,76.806427 57.258423,75.568283 50.900959,73.871292 
z"/>
<path fill="#FCFCFA" opacity="1.000000" stroke="none" 
	d="
M95.012878,49.161522 
	C108.311722,49.408840 121.644669,49.162422 134.897369,50.077789 
	C143.671738,50.683838 148.843323,57.113430 149.806473,66.114632 
	C150.749100,74.924088 146.231598,82.635536 138.297363,85.640770 
	C136.600967,86.283318 134.820648,86.704308 132.686707,87.345169 
	C143.544968,94.897415 147.858582,106.994987 155.596283,117.965683 
	C149.757858,117.965683 144.731812,118.101578 139.725708,117.846481 
	C138.770050,117.797775 137.708405,116.331863 137.010071,115.305809 
	C132.891479,109.254395 128.646225,103.272118 124.870392,97.009270 
	C121.060257,90.689514 115.859573,87.941963 108.140869,89.296158 
	C108.140869,98.530243 108.140869,107.942764 108.140869,117.994064 
	C103.790924,117.994064 99.860626,117.994064 95.466232,117.457932 
	C95.005722,94.335037 95.009300,71.748283 95.012878,49.161522 
M113.592468,61.001125 
	C111.812347,61.001125 110.032227,61.001125 108.182785,61.001125 
	C108.182785,66.558060 108.182785,71.612282 108.182785,76.806953 
	C114.563377,76.806953 120.700729,77.069504 126.804916,76.732155 
	C132.755325,76.403297 135.602036,73.366280 135.377533,68.519684 
	C135.162735,63.882133 132.269882,61.331318 126.544930,61.069416 
	C122.559822,60.887108 118.560623,61.012943 113.592468,61.001125 
z"/>
<path fill="#FAFBFA" opacity="1.000000" stroke="none" 
	d="
M51.295418,73.939499 
	C57.258423,75.568283 62.943020,76.806427 68.370209,78.759766 
	C78.219643,82.304764 82.562042,88.928139 82.164841,98.831497 
	C81.804672,107.811569 76.281563,115.219200 66.857460,117.398796 
	C60.976639,118.758904 54.576412,119.325005 48.614422,118.587967 
	C35.122055,116.920036 28.689756,109.720657 26.423071,95.205627 
	C30.678364,94.753700 34.915226,94.303734 39.485790,93.818329 
	C39.830032,94.661690 40.206791,95.339203 40.388054,96.065506 
	C43.280838,107.656502 54.434193,108.511742 61.848671,105.824631 
	C65.448257,104.520081 68.190796,102.091133 68.180710,97.759781 
	C68.170616,93.423447 65.194534,91.816902 61.647579,90.729568 
	C54.233082,88.456627 46.511841,86.860840 39.486973,83.713737 
	C28.031229,78.581612 25.130075,64.228012 33.603310,55.374821 
	C36.411911,52.440273 40.669632,49.894218 44.601284,49.261578 
	C50.859966,48.254494 57.520233,48.221493 63.794678,49.184196 
	C73.651131,50.696491 79.442169,58.183044 80.104660,68.841820 
	C75.726273,69.274384 71.327599,69.708946 67.036140,70.132919 
	C62.944084,61.063370 57.575886,58.071789 49.077469,60.786091 
	C46.504322,61.607933 43.368786,64.007195 42.600155,66.370071 
	C41.402142,70.052925 45.178642,71.551033 48.100452,72.853012 
	C49.005493,73.256310 49.965900,73.535355 51.295418,73.939499 
z"/>
<path fill="#000066" opacity="1.000000" stroke="none" 
	d="
M94.058701,117.885834 
	C93.706436,116.862053 93.049316,115.839020 93.046837,114.814392 
	C92.995399,93.551178 93.016014,72.287781 93.040924,51.024437 
	C93.041489,50.544529 93.257568,50.064873 93.689850,49.808006 
	C94.023949,72.649223 94.041328,95.267532 94.058701,117.885834 
z"/>
<path fill="#B6FFFF" opacity="1.000000" stroke="none" 
	d="
M94.300148,117.931915 
	C94.041328,95.267532 94.023949,72.649223 94.032700,49.572495 
	C94.058823,49.114063 94.541626,49.021996 94.777252,49.091759 
	C95.009300,71.748283 95.005722,94.335037 95.007561,117.380142 
	C95.012985,117.838486 94.541588,117.977997 94.300148,117.931915 
z"/>
<path fill="#040204" opacity="1.000000" stroke="none" 
	d="
M114.080093,61.001125 
	C118.560623,61.012943 122.559822,60.887108 126.544930,61.069416 
	C132.269882,61.331318 135.162735,63.882133 135.377533,68.519684 
	C135.602036,73.366280 132.755325,76.403297 126.804916,76.732155 
	C120.700729,77.069504 114.563377,76.806953 108.182785,76.806953 
	C108.182785,71.612282 108.182785,66.558060 108.182785,61.001125 
	C110.032227,61.001125 111.812347,61.001125 114.080093,61.001125 
z"/>
</svg>