<svg version="1.1" id="Layer_1" xmlns="http://www.w3.org/2000/svg" xmlns:xlink="http://www.w3.org/1999/xlink" x="0px" y="0px"
	 width="100%" viewBox="0 0 177 174" enable-background="new 0 0 177 174" xml:space="preserve">
<path fill="#FFFFFF" opacity="1.000000" stroke="none" 
	d="
M99.000000,175.000000 
	C66.000000,175.000000 33.500004,175.000000 1.000004,175.000000 
	C1.000003,117.000008 1.000003,59.000011 1.000001,1.000012 
	C59.999989,1.000008 118.999977,1.000008 177.999969,1.000004 
	C177.999985,58.999989 177.999985,116.999977 178.000000,174.999985 
	C151.833328,175.000000 125.666664,175.000000 99.000000,175.000000 
M174.044357,108.661957 
	C178.116669,96.872398 178.124741,84.663200 175.729111,72.791809 
	C171.806290,53.352543 162.655823,36.704208 147.196777,23.534990 
	C126.179291,5.630688 101.988655,-1.153180 75.231911,3.266069 
	C55.256046,6.565360 38.137585,16.109333 24.457859,31.813469 
	C11.973921,46.144855 5.086460,62.648647 3.162651,81.128853 
	C1.588295,96.252213 4.694559,110.993370 11.357584,124.680504 
	C21.086954,144.666519 36.307838,159.117722 56.996880,167.475769 
	C74.677383,174.618393 92.792381,176.000214 111.406677,171.274734 
	C129.900528,166.579819 145.105545,157.003922 157.279785,142.306976 
	C165.338760,132.578049 171.102676,121.807487 174.044357,108.661957 
z"/>
<path fill="#010101" opacity="1.000000" stroke="none" 
	d="
M174.024506,109.087112 
	C171.102676,121.807487 165.338760,132.578049 157.279785,142.306976 
	C145.105545,157.003922 129.900528,166.579819 111.406677,171.274734 
	C92.792381,176.000214 74.677383,174.618393 56.996880,167.475769 
	C36.307838,159.117722 21.086954,144.666519 11.357584,124.680504 
	C4.694559,110.993370 1.588295,96.252213 3.162651,81.128853 
	C5.086460,62.648647 11.973921,46.144855 24.457859,31.813469 
	C38.137585,16.109333 55.256046,6.565360 75.231911,3.266069 
	C101.988655,-1.153180 126.179291,5.630688 147.196777,23.534990 
	C162.655823,36.704208 171.806290,53.352543 175.729111,72.791809 
	C178.124741,84.663200 178.116669,96.872398 174.024506,109.087112 
M94.542809,117.977715 
	C94.542809,117.977715 95.013275,117.838196 95.930626,117.993629 
	C99.860809,117.993629 103.790993,117.993629 108.140839,117.993629 
	C108.140839,107.941917 108.140839,98.529579 108.140839,89.362793 
	C115.891418,87.875595 121.055962,90.707718 124.868172,97.009521 
	C128.653610,103.267075 132.891434,109.253326 137.010040,115.304665 
	C137.708435,116.330795 138.769760,117.797226 139.725281,117.845924 
	C144.731216,118.101082 149.757095,117.965172 155.595001,117.965172 
	C147.857971,106.994690 143.544006,94.897423 132.685593,87.344940 
	C134.819794,86.704025 136.600143,86.283051 138.296616,85.640526 
	C146.230927,82.635429 150.748398,74.924301 149.805878,66.114777 
	C148.842896,57.113953 143.668091,50.682426 134.897171,50.077641 
	C121.644470,49.163818 108.311836,49.409107 94.542847,49.022278 
	C94.542847,49.022278 94.060699,49.112991 93.370346,49.578655 
	C93.255341,50.058548 93.040260,50.538330 93.039711,51.018353 
	C93.015343,72.285873 92.995193,93.553452 93.047157,114.820847 
	C93.049652,115.843681 93.707764,116.864914 94.542809,117.977715 
M48.379551,87.097984 
	C52.690605,88.251915 57.027054,89.320038 61.304947,90.586014 
	C64.949417,91.664528 68.290215,93.243553 68.172379,97.880959 
	C68.057503,102.401665 65.117989,104.670929 61.260662,106.008362 
	C51.255627,109.477386 44.303493,105.677467 39.397518,93.859550 
	C35.143906,94.301720 30.781919,94.755157 26.388504,95.211861 
	C28.856575,109.823570 34.839527,116.703308 48.248528,118.481361 
	C54.483486,119.308136 61.241318,118.595680 67.393532,117.082420 
	C76.763969,114.777580 81.840767,107.651062 82.165276,98.711273 
	C82.518669,88.975655 78.230515,82.587349 68.732994,78.861610 
	C66.585068,78.019005 64.348465,77.394768 62.135269,76.727783 
	C56.918297,75.155548 51.549732,73.959305 46.541431,71.888092 
	C44.700855,71.126915 42.549572,68.273438 42.638435,66.478226 
	C42.730030,64.627869 45.029274,62.100220 46.965530,61.262539 
	C55.824619,57.429836 63.200172,60.781757 66.867256,70.104446 
	C71.168610,69.706223 75.575417,69.298241 80.265884,68.863991 
	C79.717171,60.548698 76.392006,54.291145 69.072014,50.997070 
	C59.218742,46.562981 48.989422,46.457905 39.189697,51.042484 
	C27.187078,56.657631 25.074375,72.404648 35.270847,80.843689 
	C38.712402,83.692078 43.440773,84.985680 48.379551,87.097984 
z"/>
<path fill="#FCFCFA" opacity="1.000000" stroke="none" 
	d="
M95.013176,49.161812 
	C108.311836,49.409107 121.644470,49.163818 134.897171,50.077641 
	C143.668091,50.682426 148.842896,57.113953 149.805878,66.114777 
	C150.748398,74.924301 146.230927,82.635429 138.296616,85.640526 
	C136.600143,86.283051 134.819794,86.704025 132.685593,87.344940 
	C143.544006,94.897423 147.857971,106.994690 155.595001,117.965172 
	C149.757095,117.965172 144.731216,118.101082 139.725281,117.845924 
	C138.769760,117.797226 137.708435,116.330795 137.010040,115.304665 
	C132.891434,109.253326 128.653610,103.267075 124.868172,97.009521 
	C121.055962,90.707718 115.891418,87.875595 108.140839,89.362793 
	C108.140839,98.529579 108.140839,107.941917 108.140839,117.993629 
	C103.790993,117.993629 99.860809,117.993629 95.466400,117.457596 
	C95.005836,94.334976 95.009506,71.748390 95.013176,49.161812 
M135.386551,68.566826 
	C135.246002,64.463783 132.920517,61.707207 129.103745,61.465652 
	C122.094238,61.022034 115.036568,61.339165 108.093575,61.339165 
	C108.093575,66.649353 108.093575,71.579559 108.093575,76.653130 
	C114.830246,76.653130 121.411026,76.894875 127.963173,76.566116 
	C132.164429,76.355316 135.097397,74.049561 135.386551,68.566826 
z"/>
<path fill="#FAFBFA" opacity="1.000000" stroke="none" 
	d="
M47.980301,87.043915 
	C43.440773,84.985680 38.712402,83.692078 35.270847,80.843689 
	C25.074375,72.404648 27.187078,56.657631 39.189697,51.042484 
	C48.989422,46.457905 59.218742,46.562981 69.072014,50.997070 
	C76.392006,54.291145 79.717171,60.548698 80.265884,68.863991 
	C75.575417,69.298241 71.168610,69.706223 66.867256,70.104446 
	C63.200172,60.781757 55.824619,57.429836 46.965530,61.262539 
	C45.029274,62.100220 42.730030,64.627869 42.638435,66.478226 
	C42.549572,68.273438 44.700855,71.126915 46.541431,71.888092 
	C51.549732,73.959305 56.918297,75.155548 62.135269,76.727783 
	C64.348465,77.394768 66.585068,78.019005 68.732994,78.861610 
	C78.230515,82.587349 82.518669,88.975655 82.165276,98.711273 
	C81.840767,107.651062 76.763969,114.777580 67.393532,117.082420 
	C61.241318,118.595680 54.483486,119.308136 48.248528,118.481361 
	C34.839527,116.703308 28.856575,109.823570 26.388504,95.211861 
	C30.781919,94.755157 35.143906,94.301720 39.397518,93.859550 
	C44.303493,105.677467 51.255627,109.477386 61.260662,106.008362 
	C65.117989,104.670929 68.057503,102.401665 68.172379,97.880959 
	C68.290215,93.243553 64.949417,91.664528 61.304947,90.586014 
	C57.027054,89.320038 52.690605,88.251915 47.980301,87.043915 
z"/>
<path fill="#000066" opacity="1.000000" stroke="none" 
	d="
M94.060562,117.886894 
	C93.707764,116.864914 93.049652,115.843681 93.047157,114.820847 
	C92.995193,93.553452 93.015343,72.285873 93.039711,51.018353 
	C93.040260,50.538330 93.255341,50.058548 93.688553,49.804310 
	C94.024696,72.648941 94.042633,95.267914 94.060562,117.886894 
z"/>
<path fill="#B6FFFF" opacity="1.000000" stroke="none" 
	d="
M94.301689,117.932304 
	C94.042633,95.267914 94.024696,72.648941 94.033737,49.571480 
	C94.060699,49.112991 94.542847,49.022278 94.778015,49.092045 
	C95.009506,71.748390 95.005836,94.334976 95.007721,117.379875 
	C95.013275,117.838196 94.542809,117.977715 94.301689,117.932304 
z"/>
<path fill="#040204" opacity="1.000000" stroke="none" 
	d="
M135.386810,68.982521 
	C135.097397,74.049561 132.164429,76.355316 127.963173,76.566116 
	C121.411026,76.894875 114.830246,76.653130 108.093575,76.653130 
	C108.093575,71.579559 108.093575,66.649353 108.093575,61.339165 
	C115.036568,61.339165 122.094238,61.022034 129.103745,61.465652 
	C132.920517,61.707207 135.246002,64.463783 135.386810,68.982521 
z"/>
</svg>